HIERARCHY
ROOT root
{
	OFFSET	0	13.1	24.9
	CHANNELS 6  Xposition Yposition Zposition Xrotation Yrotation Zrotation
	JOINT spine_1
	{
		OFFSET	0	9.99999	0
		CHANNELS 3  Xrotation Yrotation Zrotation
		JOINT spine_2
		{
			OFFSET	0	112	-10
			CHANNELS 3  Xrotation Yrotation Zrotation
			JOINT spine_3
			{
				OFFSET	0	206.5	19.3
				CHANNELS 3  Xrotation Yrotation Zrotation
				JOINT spine_4
				{
					OFFSET	0	110.4	14.6
					CHANNELS 3  Xrotation Yrotation Zrotation
					JOINT neck_1
					{
						OFFSET	0	71.8	-50.3
						CHANNELS 3  Xrotation Yrotation Zrotation
						JOINT neck_2
						{
							OFFSET	0	86.2	-25.8
							CHANNELS 3  Xrotation Yrotation Zrotation
							JOINT head_ee
							{
								OFFSET	0	179.8	-8.7
								CHANNELS 3  Xrotation Yrotation Zrotation
								End Site
								{
									OFFSET	1	0	0
								}
							}
						}
					}
					JOINT left_clavicle
					{
						OFFSET	-43.2	22.4	-70.8
						CHANNELS 3  Xrotation Yrotation Zrotation
						JOINT left_shoulder
						{
							OFFSET	-93.9	-5.79999	48.7
							CHANNELS 3  Xrotation Yrotation Zrotation
							JOINT left_elbow
							{
								OFFSET	-291.4	-30.8	15.2
								CHANNELS 3  Xrotation Yrotation Zrotation
								JOINT left_lowarm_twist
								{
									OFFSET	-110.7	-3.89999	13.6
									CHANNELS 3  Xrotation Yrotation Zrotation
									JOINT left_hand
									{
										OFFSET	-110.7	-3.89999	13.6
										CHANNELS 3  Xrotation Yrotation Zrotation
										JOINT left_ee
										{
											OFFSET	-80.8	-5.10001	12.1
											CHANNELS 3  Xrotation Yrotation Zrotation
											End Site
											{
												OFFSET	1	0	0
											}
										}
									}
								}
							}
						}
					}
					JOINT right_clavicle
					{
						OFFSET	43.2	22.4	-70.8
						CHANNELS 3  Xrotation Yrotation Zrotation
						JOINT right_shoulder
						{
							OFFSET	93.9	-5.79999	48.7
							CHANNELS 3  Xrotation Yrotation Zrotation
							JOINT right_elbow
							{
								OFFSET	291.4	-30.8	15.2
								CHANNELS 3  Xrotation Yrotation Zrotation
								JOINT right_lowarm_twist
								{
									OFFSET	110.7	-3.89999	13.6
									CHANNELS 3  Xrotation Yrotation Zrotation
									JOINT right_hand
									{
										OFFSET	110.7	-3.89999	13.6
										CHANNELS 3  Xrotation Yrotation Zrotation
										JOINT right_ee
										{
											OFFSET	80.8	-5.10001	12.1
											CHANNELS 3  Xrotation Yrotation Zrotation
											End Site
											{
												OFFSET	1	0	0
											}
										}
									}
								}
							}
						}
					}
				}
			}
		}
	}
	JOINT left_hip
	{
		OFFSET	-82.8	-127.5	0.300001
		CHANNELS 3  Xrotation Yrotation Zrotation
		JOINT left_knee
		{
			OFFSET	-28.2	-396.7	2.2
			CHANNELS 3  Xrotation Yrotation Zrotation
			JOINT left_ankle
			{
				OFFSET	-11.7	-411.3	35.4
				CHANNELS 3  Xrotation Yrotation Zrotation
				JOINT left_toes
				{
					OFFSET	0	-60	-88.6
					CHANNELS 3  Xrotation Yrotation Zrotation
					JOINT left_foot_ee
					{
						OFFSET	-22.5	-16.5	-42.2
						CHANNELS 3  Xrotation Yrotation Zrotation
						End Site
						{
							OFFSET	1	0	0
						}
					}
				}
			}
		}
	}
	JOINT right_hip
	{
		OFFSET	82.8	-127.5	0.300001
		CHANNELS 3  Xrotation Yrotation Zrotation
		JOINT right_knee
		{
			OFFSET	28.2	-396.7	2.2
			CHANNELS 3  Xrotation Yrotation Zrotation
			JOINT right_ankle
			{
				OFFSET	11.7	-411.3	35.4
				CHANNELS 3  Xrotation Yrotation Zrotation
				JOINT right_toes
				{
					OFFSET	0	-60	-88.6
					CHANNELS 3  Xrotation Yrotation Zrotation
					JOINT right_foot_ee
					{
						OFFSET	22.5	-16.5	-42.2
						CHANNELS 3  Xrotation Yrotation Zrotation
						End Site
						{
							OFFSET	1	0	0
						}
					}
				}
			}
		}
	}
}
MOTION
Frames: 8
Frame Time: 0.02
1267.86 646.195 -486.971 30.6672 -84.6223 36.3884 -1.57282 -0.192132 -0.883303 -1.57239 -0.135538 -0.893737 -1.56983 0.0800293 -0.900407 -1.57096 -0.0631715 -0.901746 -1.21703 2.48256 -5.99804 -1.03187 9.27397 -6.08217 -0.0 0.0 -0.0 8.04799 17.1171 14.679 -5.97358 -5.48063 66.5697 0.457424 -12.7675 0.0511773 67.1358 -2.44871 -7.72526 -9.20461 30.5583 -40.9785 -0.0 0.0 -0.0 8.46304 7.03254 -16.5617 7.21866 1.17551 -68.763 1.37423 34.2434 -0.423357 52.9188 1.1856 6.41781 7.59178 13.0098 -51.977 0.0 0.0 0.0 28.5657 4.23095 -8.96569 -8.0446 0.246678 1.20895 -11.0359 -0.324223 1.66814 19.3435 -0.0 -0.0 -0.0 0.0 -0.0 -19.2139 9.73625 -8.58909 -12.8504 -0.3123 -1.94323 31.1562 -3.56622 4.01404 0.499815 -0.0 -0.0 0.0 0.0 0.0 
1294.55 651.411 -494.988 30.6011 -84.4907 37.0 -1.4058 -0.309053 -1.06424 -1.40521 -0.24071 -1.08174 -1.4 0.0190876 -1.10803 -1.40167 -0.156135 -1.09715 0.438485 2.65215 -6.52894 0.681939 10.0845 -6.82109 -0.0 0.0 -0.0 8.17097 17.6979 14.82 -5.12931 -4.21514 66.9528 0.533293 -14.7984 0.0692553 69.1296 -2.65056 -7.88238 -9.40592 30.6519 -42.4096 -0.0 0.0 -0.0 8.04937 6.06884 -15.7024 4.56266 0.98767 -68.9923 1.14047 29.4636 -0.299884 48.2099 0.843657 5.92134 7.44487 12.5113 -50.8633 0.0 0.0 0.0 26.469 4.34223 -9.31276 -7.00067 0.224294 1.05032 -10.0925 -3.32621 1.53855 17.1192 -0.0 -0.0 -0.0 0.0 -0.0 -19.1192 10.6489 -8.93348 -14.1622 -0.319493 -2.14436 25.8953 -8.75703 3.43627 3.22833 -0.0 -0.0 0.0 0.0 0.0 
1325.77 664.087 -504.76 39.8223 -84.6539 46.6077 -1.19437 -0.328401 -1.41183 -1.19329 -0.237906 -1.42986 -1.18631 0.0978888 -1.44621 -1.18921 -0.131717 -1.44352 -2.17625 3.29554 -4.77085 -2.04017 9.72523 -4.58014 -0.0 0.0 -0.0 8.37358 18.6872 15.0372 -3.44485 -3.41889 67.5801 0.541903 -15.0266 0.0714712 71.0798 -2.85318 -8.02922 -9.80064 30.8987 -45.241 -0.0 0.0 -0.0 8.45637 4.52884 -16.5614 2.65785 -1.14261 -67.7383 0.966595 25.5857 -0.219483 45.6606 0.675952 5.64145 7.3585 13.2631 -49.3721 0.0 0.0 0.0 22.2393 4.02234 -9.532 -4.86079 0.169392 0.726532 -6.55323 -4.40136 0.997562 15.5418 -0.0 -0.0 -0.0 0.0 -0.0 -19.1987 11.8286 -8.02354 -15.4593 -0.322076 -2.34335 16.905 -11.4587 2.34583 5.27209 -0.0 -0.0 0.0 0.0 0.0 
1352.31 671.705 -508.849 51.1365 -84.2316 58.1356 -1.0692 -0.288699 -1.6 -1.06779 -0.186315 -1.61512 -1.06133 0.187277 -1.61501 -1.06497 -0.0700991 -1.62432 -6.08543 4.29561 -4.7897 -5.99001 11.4622 -4.03083 -0.0 0.0 -0.0 8.50513 18.9324 15.2186 -2.55821 -3.17562 68.1774 0.778354 -21.0853 0.144861 72.8489 -3.04122 -8.1564 -10.5083 31.5012 -50.5106 -0.0 0.0 -0.0 6.89176 3.07594 -13.3534 0.744832 -2.11135 -70.64 0.844033 22.6901 -0.169347 42.596 0.491133 5.29567 7.47804 13.9684 -49.9928 0.0 0.0 0.0 16.6061 3.94569 -10.1065 0.558421 -0.0233973 -0.0824988 -7.20157 -9.44542 1.12478 14.4915 -0.0 -0.0 -0.0 0.0 -0.0 -18.5853 12.9749 -7.60672 -19.4675 -0.301594 -2.95787 7.85636 -14.4929 1.13194 5.91353 -0.0 -0.0 0.0 0.0 0.0 
1378.8 676.281 -512.5 58.3236 -83.379 65.7661 -1.00182 -0.327342 -1.74693 -1.00015 -0.215534 -1.76421 -0.992093 0.190726 -1.76707 -0.996439 -0.0906976 -1.77501 -9.16134 4.65721 -3.46158 -9.14872 11.1189 -2.30137 -0.0 0.0 -0.0 8.56289 18.3632 15.3795 -1.46483 -2.2023 68.5216 0.863169 -23.1508 0.1768 74.8551 -3.25911 -8.29357 -10.8469 31.5713 -53.7692 -0.0 0.0 -0.0 6.07179 2.07885 -11.72 -1.42208 -2.71632 -71.885 0.692779 18.9414 -0.115568 39.9846 0.348464 4.99367 7.51732 14.3007 -50.1096 0.0 0.0 0.0 12.5064 4.04792 -10.6111 3.33189 -0.151478 -0.488728 -5.80126 -13.1749 0.925331 14.3259 -0.0 -0.0 -0.0 0.0 -0.0 -17.7913 14.1156 -8.28004 -24.2025 -0.22213 -3.67989 2.95278 -17.8416 0.434929 5.68749 -0.0 -0.0 0.0 0.0 0.0 
1398.68 681.395 -517.799 68.872 -83.2057 76.7751 -0.928155 -0.372322 -1.96074 -0.92605 -0.246825 -1.98045 -0.915771 0.206715 -1.98503 -0.921254 -0.109314 -1.99277 -11.8056 4.6497 -2.76519 -11.8394 10.5974 -1.36535 -0.0 0.0 -0.0 8.65623 15.866 15.8192 -2.35703 -1.66473 68.6575 1.07546 -28.0458 0.268606 77.3055 -3.53154 -8.45064 -10.991 31.4375 -55.6367 -0.0 0.0 -0.0 6.08234 0.981088 -11.7635 -2.95654 -3.7249 -70.4344 0.509934 14.1769 -0.0634118 38.035 0.25102 4.76417 7.54125 14.5857 -50.109 0.0 0.0 0.0 9.41472 4.01254 -11.2896 4.60412 -0.216792 -0.672941 -5.78165 -14.8937 0.933784 14.1992 -0.0 -0.0 -0.0 0.0 -0.0 -17.3375 15.0472 -8.47988 -26.2161 -0.170301 -3.98455 1.15726 -16.113 0.170434 6.46469 -0.0 -0.0 0.0 0.0 0.0 
1415.41 687.456 -522.624 77.9433 -82.6943 85.9107 -0.858628 -0.381569 -1.94951 -0.85655 -0.256768 -1.96983 -0.846025 0.192217 -1.97717 -0.851459 -0.122389 -1.98271 -13.8382 4.32403 -2.58056 -13.8901 9.82629 -1.10113 -0.0 0.0 -0.0 8.75204 17.1076 15.8377 -0.179745 -3.41747 69.2205 1.0976 -28.533 0.279099 78.81 -3.70204 -8.54127 -11.3152 31.9583 -58.191 -0.0 0.0 -0.0 5.8682 1.44502 -11.3288 -3.58828 -4.72422 -70.5554 0.287518 8.10619 -0.020373 36.6546 0.18679 4.59978 7.27229 14.2491 -47.7336 0.0 0.0 0.0 6.58645 4.27397 -11.2176 5.15197 -0.246178 -0.751821 -4.89236 -14.5641 0.786779 14.7565 -0.0 -0.0 -0.0 0.0 -0.0 -14.7047 16.1695 -8.65032 -30.2351 -0.0349881 -4.58639 -1.15486 -21.8751 -0.174212 5.50545 -0.0 -0.0 0.0 0.0 0.0 
1427.93 689.458 -528.841 85.3272 -82.9767 93.6518 -0.743535 -0.473134 -2.27672 -0.740711 -0.327341 -2.30219 -0.725302 0.1932 -2.3173 -0.732754 -0.175098 -2.31874 -14.6155 4.41864 -2.4184 -14.6797 9.89305 -0.849023 -0.0 0.0 -0.0 9.42365 16.5047 17.0358 1.55156 -2.49915 69.1287 1.17744 -30.2527 0.31829 82.0761 -4.07998 -8.72244 -11.4522 32.5093 -58.4499 -0.0 0.0 -0.0 5.73239 1.27816 -11.0634 -3.48619 -7.09948 -69.3803 0.183992 5.20792 -0.0083678 36.206 0.166771 4.54603 6.90892 14.2796 -44.2996 0.0 0.0 0.0 5.53887 5.77951 -10.9719 6.07037 -0.297132 -0.883425 -3.8047 -13.2396 0.604633 14.7118 -0.0 -0.0 -0.0 0.0 -0.0 -12.957 17.3593 -8.5577 -31.5845 0.0198796 -4.78619 -1.215 -24.278 -0.185323 4.62498 -0.0 -0.0 0.0 0.0 0.0 
